<svg width="340" height="150" xmlns="http://www.w3.org/2000/svg">
 <!-- Created with Method Draw - http://github.com/duopixel/Method-Draw/ -->
 <defs>
  <linearGradient y2="0.89688" x2="0.99609" y1="0.20938" x1="1" id="svg_11">
   <stop offset="0" stop-opacity="0.99609" stop-color="#00a4ea"/>
   <stop offset="1" stop-opacity="0.99609" stop-color="#5457b9"/>
  </linearGradient>
 </defs>
 <g>
  <title>background</title>
  <path id="svg_6" d="m-1,149l342.70001,0.2l0,-59l-22,-19l-32,-11l-36,-59c0.29999,0.8 -42.70001,83.8 -42.70001,83.8c0,0 -18,-30 -18.29999,-30.8c0.29999,0.8 -36.70001,60.8 -36.70001,60.8c0,0 -13,6 -13,6c0,0 -16,-4 -16.29999,-4.8c0.29999,0.8 -40.70001,-39.2 -41,-40c0.29999,0.8 -27.70001,33.8 -28,33c0.29999,0.8 -20.70001,-16.2 -21,-17c0.29999,0.8 -34.70001,29.8 -34.70001,29.8c0,0 2,22 -1,30" opacity="1" stroke-opacity="null" stroke-width="NaN" stroke="null" fill="url(#svg_11)"/>
 </g>
</svg>